<?xml version="1.0" standalone="no"?>
<!DOCTYPE svg PUBLIC "-//W3C//DTD SVG 20010904//EN"
 "http://www.w3.org/TR/2001/REC-SVG-20010904/DTD/svg10.dtd">
<svg version="1.0" xmlns="http://www.w3.org/2000/svg"
 width="512.000000pt" height="512.000000pt" viewBox="0 0 512.000000 512.000000"
 preserveAspectRatio="xMidYMid meet">

<g transform="translate(0.000000,512.000000) scale(0.100000,-0.100000)"
fill="#000000" stroke="none">
<path d="M2385 4914 c-362 -53 -653 -191 -903 -429 -246 -233 -397 -510 -464
-847 -31 -160 -31 -417 1 -568 32 -151 73 -267 145 -415 80 -162 98 -188 510
-748 185 -251 339 -464 342 -472 4 -10 0 -15 -14 -15 -45 0 -296 -52 -408 -84
-305 -88 -501 -212 -576 -364 -29 -58 -33 -76 -33 -147 0 -71 4 -88 33 -147
68 -139 240 -256 504 -342 480 -158 1208 -188 1788 -76 416 81 700 231 792
418 29 58 33 76 33 147 0 98 -29 168 -102 246 -141 151 -446 276 -818 335 -60
9 -111 18 -113 20 -2 1 155 217 349 481 194 263 376 514 405 558 137 211 231
458 265 694 18 131 6 401 -24 531 -144 613 -608 1069 -1222 1200 -75 16 -144
22 -280 25 -99 2 -193 1 -210 -1z m436 -314 c429 -88 793 -404 944 -820 129
-358 86 -752 -120 -1095 -33 -55 -289 -412 -570 -793 -402 -546 -512 -689
-521 -679 -45 45 -1025 1392 -1072 1472 -74 125 -126 246 -159 372 -35 134
-43 356 -18 504 93 557 544 987 1113 1059 101 13 285 4 403 -20z m-472 -3610
c65 -88 123 -156 140 -165 40 -20 116 -19 151 2 16 9 78 83 137 165 l108 147
50 -5 c223 -24 390 -56 550 -105 189 -58 345 -150 345 -204 0 -30 -62 -86
-138 -124 -474 -239 -1511 -271 -2105 -64 -128 44 -207 84 -257 129 -52 47
-52 72 1 118 116 99 424 198 734 235 50 6 101 13 115 15 14 2 33 4 42 5 10 1
56 -53 127 -149z"/>
<path d="M2465 4059 c-153 -23 -271 -84 -386 -199 -95 -94 -134 -156 -175
-275 -25 -71 -28 -94 -28 -210 0 -114 3 -140 27 -210 91 -274 331 -461 616
-482 121 -8 229 14 351 74 80 39 108 59 180 132 139 140 201 288 201 481 1
217 -89 407 -256 543 -143 116 -352 174 -530 146z m226 -207 c173 -46 321
-202 358 -380 48 -232 -84 -472 -310 -563 -82 -33 -226 -38 -316 -11 -214 65
-353 253 -353 477 0 326 304 559 621 477z"/>
</g>
</svg>
